<svg xmlns="http://www.w3.org/2000/svg" viewBox="0 0 511.999 511.999"><path d="M511.999 102.871c0-7.743-3.015-15.022-8.49-20.496l-11.386-11.388c-5.475-5.475-12.755-8.49-20.498-8.49s-15.022 3.015-20.498 8.49l-53.653 53.653V67.463c0-5.632-4.567-10.199-10.199-10.199H10.199C4.566 57.263 0 61.831 0 67.463v377.074c0 5.632 4.566 10.199 10.199 10.199h377.075c5.632 0 10.199-4.567 10.199-10.199l-.004-215.126 106.04-106.041c5.475-5.475 8.49-12.756 8.49-20.499zM377.075 434.337H20.398V77.663h356.676v67.376L190.347 331.766a10.21 10.21 0 0 0-2.464 3.987l-18.98 56.939a10.197 10.197 0 0 0 9.678 13.424c1.079 0 2.167-.171 3.224-.523l56.939-18.979a10.203 10.203 0 0 0 3.987-2.464l134.344-134.344v184.531zm-147.067-66.313l-35.304 11.767 11.768-35.304 216.563-216.563 23.536 23.536-216.563 216.564zm259.077-259.079l-28.09 28.091-11.768-11.768L437.46 113.5l28.091-28.091a8.531 8.531 0 0 1 6.074-2.516c2.295 0 4.451.893 6.074 2.515l11.387 11.388.001.001a8.534 8.534 0 0 1 2.515 6.073 8.531 8.531 0 0 1-2.517 6.075z"/><path d="M318.125 121.009h-9.724c-5.632 0-10.199 4.567-10.199 10.199s4.566 10.199 10.199 10.199h9.724c5.632 0 10.199-4.567 10.199-10.199.001-5.631-4.567-10.199-10.199-10.199zm-54.022 0H78.267c-5.633 0-10.199 4.567-10.199 10.199s4.566 10.199 10.199 10.199h185.837c5.632 0 10.199-4.567 10.199-10.199-.001-5.631-4.568-10.199-10.2-10.199zm-9.724 59.425H78.267c-5.633 0-10.199 4.567-10.199 10.199s4.566 10.199 10.199 10.199H254.38c5.632 0 10.199-4.567 10.199-10.199s-4.568-10.199-10.2-10.199zm-63.746 59.425H78.267c-5.633 0-10.199 4.567-10.199 10.199s4.566 10.199 10.199 10.199h112.367c5.633 0 10.199-4.567 10.199-10.199s-4.567-10.199-10.2-10.199zm-48.619 58.343H78.267c-5.633 0-10.199 4.567-10.199 10.199S72.634 318.6 78.267 318.6h63.746c5.633 0 10.199-4.567 10.199-10.199s-4.565-10.199-10.198-10.199z"/></svg>