<?xml version="1.0" encoding="utf-8"?><svg xmlns="http://www.w3.org/2000/svg" xmlns:xlink="http://www.w3.org/1999/xlink"><symbol viewBox="0 0 426.669 307.008" id="checked" xmlns="http://www.w3.org/2000/svg"><path d="M153.504 307.008c-8.657 0-17.323-3.302-23.927-9.911L9.914 177.434c-13.219-13.218-13.219-34.645 0-47.863 13.217-13.218 34.645-13.218 47.862 0l95.727 95.727L368.894 9.912c13.219-13.214 34.65-13.218 47.86 0 13.222 13.218 13.222 34.65 0 47.863L177.435 297.097c-6.61 6.605-15.272 9.911-23.933 9.911z"/></symbol><symbol viewBox="0 0 42.666 42.666" id="exclamation" xmlns="http://www.w3.org/2000/svg"><path d="M16.899 38.233c0 2.448 1.984 4.433 4.434 4.433s4.434-1.984 4.434-4.433c0-2.451-1.984-4.435-4.434-4.435s-4.434 1.984-4.434 4.435zM23.635 25V2a2 2 0 0 0-4 0v23a2 2 0 0 0 4 0z"/></symbol><symbol viewBox="0 0 512 512" id="message" xmlns="http://www.w3.org/2000/svg"><path d="M511.609 197.601c-.001-.77-.173-1.933-.472-2.603a13.069 13.069 0 0 0-5.154-7.281l-73.292-50.948V82.153c0-7.24-5.872-13.112-13.112-13.112H335.26l-71.743-49.878a13.104 13.104 0 0 0-14.935-.026l-72.206 49.904h-83.95c-7.242 0-13.112 5.872-13.112 13.112v53.973L5.666 187.027c-3.623 2.504-5.583 6.507-5.645 10.6-.004.077-.021.15-.021.23l.391 284.235a13.118 13.118 0 0 0 3.852 9.266 13.114 13.114 0 0 0 9.26 3.827h.018l485.385-.667c7.24-.01 13.104-5.889 13.094-13.13l-.391-283.787zm-78.919-28.893l41.898 29.118-41.898 29.128v-58.246zM256.015 45.884l33.31 23.156h-66.812l33.502-23.156zM105.538 95.265h300.928v149.921L305.43 315.428l-41.194-31.954c-.064-.05-.119-.081-.181-.126-4.604-3.454-11.116-3.581-15.894.126l-41.493 32.185-101.13-69.893V95.265zm-26.224 72.738v59.64l-43.146-29.819 43.146-29.821zm-53.056 54.864l158.669 109.655L26.578 455.346l-.32-232.479zm25.617 246.042l204.324-158.484L459.79 468.348l-407.915.561zm275.269-136.638L485.42 222.235l.32 233.059-158.596-123.023z"/><path d="M344.77 147.713H167.234c-7.24 0-13.112 5.872-13.112 13.112s5.872 13.112 13.112 13.112H344.77c7.242 0 13.112-5.872 13.112-13.112s-5.87-13.112-13.112-13.112zm0 68.182H167.234c-7.24 0-13.112 5.872-13.112 13.112s5.872 13.112 13.112 13.112H344.77c7.242 0 13.112-5.872 13.112-13.112s-5.87-13.112-13.112-13.112z"/></symbol><symbol viewBox="0 0 511.999 511.999" id="note" xmlns="http://www.w3.org/2000/svg"><path d="M511.999 102.871c0-7.743-3.015-15.022-8.49-20.496l-11.386-11.388c-5.475-5.475-12.755-8.49-20.498-8.49s-15.022 3.015-20.498 8.49l-53.653 53.653V67.463c0-5.632-4.567-10.199-10.199-10.199H10.199C4.566 57.263 0 61.831 0 67.463v377.074c0 5.632 4.566 10.199 10.199 10.199h377.075c5.632 0 10.199-4.567 10.199-10.199l-.004-215.126 106.04-106.041c5.475-5.475 8.49-12.756 8.49-20.499zM377.075 434.337H20.398V77.663h356.676v67.376L190.347 331.766a10.21 10.21 0 0 0-2.464 3.987l-18.98 56.939a10.197 10.197 0 0 0 9.678 13.424c1.079 0 2.167-.171 3.224-.523l56.939-18.979a10.203 10.203 0 0 0 3.987-2.464l134.344-134.344v184.531zm-147.067-66.313l-35.304 11.767 11.768-35.304 216.563-216.563 23.536 23.536-216.563 216.564zm259.077-259.079l-28.09 28.091-11.768-11.768L437.46 113.5l28.091-28.091a8.531 8.531 0 0 1 6.074-2.516c2.295 0 4.451.893 6.074 2.515l11.387 11.388.001.001a8.534 8.534 0 0 1 2.515 6.073 8.531 8.531 0 0 1-2.517 6.075z"/><path d="M318.125 121.009h-9.724c-5.632 0-10.199 4.567-10.199 10.199s4.566 10.199 10.199 10.199h9.724c5.632 0 10.199-4.567 10.199-10.199.001-5.631-4.567-10.199-10.199-10.199zm-54.022 0H78.267c-5.633 0-10.199 4.567-10.199 10.199s4.566 10.199 10.199 10.199h185.837c5.632 0 10.199-4.567 10.199-10.199-.001-5.631-4.568-10.199-10.2-10.199zm-9.724 59.425H78.267c-5.633 0-10.199 4.567-10.199 10.199s4.566 10.199 10.199 10.199H254.38c5.632 0 10.199-4.567 10.199-10.199s-4.568-10.199-10.2-10.199zm-63.746 59.425H78.267c-5.633 0-10.199 4.567-10.199 10.199s4.566 10.199 10.199 10.199h112.367c5.633 0 10.199-4.567 10.199-10.199s-4.567-10.199-10.2-10.199zm-48.619 58.343H78.267c-5.633 0-10.199 4.567-10.199 10.199S72.634 318.6 78.267 318.6h63.746c5.633 0 10.199-4.567 10.199-10.199s-4.565-10.199-10.198-10.199z"/></symbol><symbol viewBox="0 0 418.047 308.566" id="play-button" xmlns="http://www.w3.org/2000/svg"><path d="M217.22 304.266L416.296 15.607c2.1-3.055 2.32-7.017.618-10.282A9.946 9.946 0 0 0 408.103 0H9.954a9.961 9.961 0 0 0-8.818 5.325A10.031 10.031 0 0 0 0 9.954c0 1.98.597 3.951 1.762 5.653l199.075 288.66a9.94 9.94 0 0 0 8.192 4.3 9.966 9.966 0 0 0 8.192-4.3z"/></symbol><symbol viewBox="0 0 482.5 482.5" id="printer" xmlns="http://www.w3.org/2000/svg"><path d="M399.25 98.9h-12.4V71.3c0-39.3-32-71.3-71.3-71.3h-149.7c-39.3 0-71.3 32-71.3 71.3v27.6h-11.3c-39.3 0-71.3 32-71.3 71.3v115c0 39.3 32 71.3 71.3 71.3h11.2v90.4c0 19.6 16 35.6 35.6 35.6h221.1c19.6 0 35.6-16 35.6-35.6v-90.4h12.5c39.3 0 71.3-32 71.3-71.3v-115c0-39.3-32-71.3-71.3-71.3zm-277.8-27.6c0-24.4 19.9-44.3 44.3-44.3h149.6c24.4 0 44.3 19.9 44.3 44.3v27.6h-238.2V71.3zm238.3 375.8c0 4.7-3.9 8.6-8.6 8.6h-221.1c-4.7 0-8.6-3.9-8.6-8.6V298h238.3v149.1zm83.8-161.8c0 24.4-19.9 44.3-44.3 44.3h-12.4V298h17.8c7.5 0 13.5-6 13.5-13.5s-6-13.5-13.5-13.5h-330c-7.5 0-13.5 6-13.5 13.5s6 13.5 13.5 13.5h19.9v31.6h-11.3c-24.4 0-44.3-19.9-44.3-44.3v-115c0-24.4 19.9-44.3 44.3-44.3h316c24.4 0 44.3 19.9 44.3 44.3v115z"/><path d="M154.15 364.4h171.9c7.5 0 13.5-6 13.5-13.5s-6-13.5-13.5-13.5h-171.9c-7.5 0-13.5 6-13.5 13.5s6.1 13.5 13.5 13.5zm173 28.2h-172c-7.5 0-13.5 6-13.5 13.5s6 13.5 13.5 13.5h171.9c7.5 0 13.5-6 13.5-13.5s-6-13.5-13.4-13.5zm71.8-240.7h-27.4c-7.5 0-13.5 6-13.5 13.5s6 13.5 13.5 13.5h27.4c7.5 0 13.5-6 13.5-13.5s-6-13.5-13.5-13.5z"/></symbol><symbol viewBox="0 0 129 129" id="rightArrow" xmlns="http://www.w3.org/2000/svg"><path d="M40.4 121.3c-.8.8-1.8 1.2-2.9 1.2s-2.1-.4-2.9-1.2c-1.6-1.6-1.6-4.2 0-5.8l51-51-51-51c-1.6-1.6-1.6-4.2 0-5.8 1.6-1.6 4.2-1.6 5.8 0l53.9 53.9c1.6 1.6 1.6 4.2 0 5.8l-53.9 53.9z"/></symbol><symbol viewBox="0 0 478.703 478.703" id="settings" xmlns="http://www.w3.org/2000/svg"><path d="M454.2 189.101l-33.6-5.7c-3.5-11.3-8-22.2-13.5-32.6l19.8-27.7c8.4-11.8 7.1-27.9-3.2-38.1l-29.8-29.8c-5.6-5.6-13-8.7-20.9-8.7-6.2 0-12.1 1.9-17.1 5.5l-27.8 19.8c-10.8-5.7-22.1-10.4-33.8-13.9l-5.6-33.2a29.54 29.54 0 0 0-29.2-24.7h-42.1c-14.5 0-26.8 10.4-29.2 24.7l-5.8 34c-11.2 3.5-22.1 8.1-32.5 13.7l-27.5-19.8c-5-3.6-11-5.5-17.2-5.5-7.9 0-15.4 3.1-20.9 8.7l-29.9 29.8c-10.2 10.2-11.6 26.3-3.2 38.1l20 28.1c-5.5 10.5-9.9 21.4-13.3 32.7l-33.2 5.6a29.54 29.54 0 0 0-24.7 29.2v42.1c0 14.5 10.4 26.8 24.7 29.2l34 5.8c3.5 11.2 8.1 22.1 13.7 32.5l-19.7 27.4c-8.4 11.8-7.1 27.9 3.2 38.1l29.8 29.8c5.6 5.6 13 8.7 20.9 8.7 6.2 0 12.1-1.9 17.1-5.5l28.1-20c10.1 5.3 20.7 9.6 31.6 13l5.6 33.6a29.54 29.54 0 0 0 29.2 24.7h42.2c14.5 0 26.8-10.4 29.2-24.7l5.7-33.6c11.3-3.5 22.2-8 32.6-13.5l27.7 19.8c5 3.6 11 5.5 17.2 5.5 7.9 0 15.3-3.1 20.9-8.7l29.8-29.8c10.2-10.2 11.6-26.3 3.2-38.1l-19.8-27.8c5.5-10.5 10.1-21.4 13.5-32.6l33.6-5.6a29.54 29.54 0 0 0 24.7-29.2v-42.1c.2-14.5-10.2-26.8-24.5-29.2zm-2.3 71.3c0 1.3-.9 2.4-2.2 2.6l-42 7c-5.3.9-9.5 4.8-10.8 9.9-3.8 14.7-9.6 28.8-17.4 41.9-2.7 4.6-2.5 10.3.6 14.7l24.7 34.8c.7 1 .6 2.5-.3 3.4l-29.8 29.8c-.7.7-1.4.8-1.9.8-.6 0-1.1-.2-1.5-.5l-34.7-24.7c-4.3-3.1-10.1-3.3-14.7-.6-13.1 7.8-27.2 13.6-41.9 17.4-5.2 1.3-9.1 5.6-9.9 10.8l-7.1 42c-.2 1.3-1.3 2.2-2.6 2.2h-42.1c-1.3 0-2.4-.9-2.6-2.2l-7-42c-.9-5.3-4.8-9.5-9.9-10.8-14.3-3.7-28.1-9.4-41-16.8-2.1-1.2-4.5-1.8-6.8-1.8-2.7 0-5.5.8-7.8 2.5l-35 24.9c-.5.3-1 .5-1.5.5-.4 0-1.2-.1-1.9-.8l-29.8-29.8c-.9-.9-1-2.3-.3-3.4l24.6-34.5c3.1-4.4 3.3-10.2.6-14.8-7.8-13-13.8-27.1-17.6-41.8-1.4-5.1-5.6-9-10.8-9.9l-42.3-7.2c-1.3-.2-2.2-1.3-2.2-2.6v-42.1c0-1.3.9-2.4 2.2-2.6l41.7-7c5.3-.9 9.6-4.8 10.9-10 3.7-14.7 9.4-28.9 17.1-42 2.7-4.6 2.4-10.3-.7-14.6l-24.9-35c-.7-1-.6-2.5.3-3.4l29.8-29.8c.7-.7 1.4-.8 1.9-.8.6 0 1.1.2 1.5.5l34.5 24.6c4.4 3.1 10.2 3.3 14.8.6 13-7.8 27.1-13.8 41.8-17.6 5.1-1.4 9-5.6 9.9-10.8l7.2-42.3c.2-1.3 1.3-2.2 2.6-2.2h42.1c1.3 0 2.4.9 2.6 2.2l7 41.7c.9 5.3 4.8 9.6 10 10.9 15.1 3.8 29.5 9.7 42.9 17.6 4.6 2.7 10.3 2.5 14.7-.6l34.5-24.8c.5-.3 1-.5 1.5-.5.4 0 1.2.1 1.9.8l29.8 29.8c.9.9 1 2.3.3 3.4l-24.7 34.7c-3.1 4.3-3.3 10.1-.6 14.7 7.8 13.1 13.6 27.2 17.4 41.9 1.3 5.2 5.6 9.1 10.8 9.9l42 7.1c1.3.2 2.2 1.3 2.2 2.6v42.1h-.1z"/><path d="M239.4 136.001c-57 0-103.3 46.3-103.3 103.3s46.3 103.3 103.3 103.3 103.3-46.3 103.3-103.3-46.3-103.3-103.3-103.3zm0 179.6c-42.1 0-76.3-34.2-76.3-76.3s34.2-76.3 76.3-76.3 76.3 34.2 76.3 76.3-34.2 76.3-76.3 76.3z"/></symbol><symbol viewBox="0 0 344.37 344.37" id="update-arrows" xmlns="http://www.w3.org/2000/svg"><path d="M334.485 37.463c-6.753-1.449-13.396 2.853-14.842 9.603l-9.084 42.391c-28.922-49.34-82.008-80.302-140.191-80.302-89.603 0-162.5 72.896-162.5 162.5 0 6.903 5.596 12.5 12.5 12.5 6.903 0 12.5-5.597 12.5-12.5 0-75.818 61.682-137.5 137.5-137.5 49.429 0 94.515 26.403 118.925 68.443l-41.674-8.931c-6.752-1.447-13.396 2.854-14.841 9.604-1.446 6.75 2.854 13.396 9.604 14.842l71.536 15.33a12.48 12.48 0 0 0 9.409-1.728 12.501 12.501 0 0 0 5.433-7.875l15.331-71.536c1.444-6.749-2.856-13.393-9.606-14.841zm-12.578 117.808c-6.899.228-12.309 6.006-12.081 12.905 1.212 36.708-11.942 71.689-37.042 98.504-25.099 26.812-59.137 42.248-95.844 43.46-1.53.05-3.052.075-4.576.075-47.896-.002-92.018-24.877-116.936-65.18l43.447 11.65c6.668 1.787 13.523-2.168 15.311-8.837 1.788-6.668-2.168-13.522-8.836-15.312L34.686 213.59a12.497 12.497 0 0 0-15.311 8.836L.43 293.092c-1.788 6.668 2.168 13.522 8.836 15.311 1.085.291 2.173.431 3.245.431 5.518 0 10.569-3.684 12.066-9.267l10.649-39.717c29.624 46.647 81.189 75.367 137.132 75.365 1.797 0 3.604-.029 5.408-.089 43.381-1.434 83.608-19.674 113.271-51.362s45.209-73.031 43.776-116.413c-.227-6.898-6.008-12.325-12.906-12.08z"/></symbol><symbol viewBox="0 0 299.997 299.997" id="user" xmlns="http://www.w3.org/2000/svg"><path d="M149.996 0C67.157 0 .001 67.158.001 149.997c0 82.837 67.156 150 149.995 150s150-67.163 150-150C299.996 67.156 232.835 0 149.996 0zm.457 220.763v-.002H85.465c0-46.856 41.152-46.845 50.284-59.097l1.045-5.587c-12.83-6.502-21.887-22.178-21.887-40.512 0-24.154 15.712-43.738 35.089-43.738s35.089 19.584 35.089 43.738c0 18.178-8.896 33.756-21.555 40.361l1.19 6.349c10.019 11.658 49.802 12.418 49.802 58.488h-64.069z"/></symbol></svg>