<?xml version="1.0" encoding="utf-8"?><svg xmlns="http://www.w3.org/2000/svg" xmlns:xlink="http://www.w3.org/1999/xlink"><symbol viewBox="0 0 426.669 307.008" id="checked" xmlns="http://www.w3.org/2000/svg"><path d="M153.504 307.008c-8.657 0-17.323-3.302-23.927-9.911L9.914 177.434c-13.219-13.218-13.219-34.645 0-47.863 13.217-13.218 34.645-13.218 47.862 0l95.727 95.727L368.894 9.912c13.219-13.214 34.65-13.218 47.86 0 13.222 13.218 13.222 34.65 0 47.863L177.435 297.097c-6.61 6.605-15.272 9.911-23.933 9.911z"/></symbol><symbol viewBox="0 0 418.047 308.566" id="play-button" xmlns="http://www.w3.org/2000/svg"><path d="M217.22 304.266L416.296 15.607c2.1-3.055 2.32-7.017.618-10.282A9.946 9.946 0 0 0 408.103 0H9.954a9.961 9.961 0 0 0-8.818 5.325A10.031 10.031 0 0 0 0 9.954c0 1.98.597 3.951 1.762 5.653l199.075 288.66a9.94 9.94 0 0 0 8.192 4.3 9.966 9.966 0 0 0 8.192-4.3z"/></symbol></svg>