<?xml version="1.0" encoding="UTF-8" standalone="no"?>
<svg
   xmlns:dc="http://purl.org/dc/elements/1.1/"
   xmlns:cc="http://creativecommons.org/ns#"
   xmlns:rdf="http://www.w3.org/1999/02/22-rdf-syntax-ns#"
   xmlns:svg="http://www.w3.org/2000/svg"
   xmlns="http://www.w3.org/2000/svg"
   height="307.008"
   width="426.66901"
   xml:space="preserve"
   viewBox="0 0 426.66899 307.00799"
   y="0px"
   x="0px"
   id="Layer_1"
   version="1.1"><metadata
     id="metadata39"><rdf:RDF><cc:Work
         rdf:about=""><dc:format>image/svg+xml</dc:format><dc:type
           rdf:resource="http://purl.org/dc/dcmitype/StillImage" /><dc:title></dc:title></cc:Work></rdf:RDF></metadata><defs
     id="defs37" /><path
     id="path2"
     d="m 153.5035,307.008 c -8.657,0 -17.323,-3.302 -23.927,-9.911 L 9.9135,177.434 c -13.218,-13.218 -13.218,-34.645 0,-47.863 13.218,-13.218 34.645,-13.218 47.863,0 l 95.727,95.727 215.39,-215.3859999 c 13.218,-13.214 34.65,-13.218 47.859,0 13.222,13.2179999 13.222,34.6499999 0,47.8629999 l -239.317,239.322 c -6.609,6.605 -15.271,9.911 -23.932,9.911 z"
     style="fill:#000000" /><g
     transform="translate(-5e-4,-59.831)"
     id="g4" /><g
     transform="translate(-5e-4,-59.831)"
     id="g6" /><g
     transform="translate(-5e-4,-59.831)"
     id="g8" /><g
     transform="translate(-5e-4,-59.831)"
     id="g10" /><g
     transform="translate(-5e-4,-59.831)"
     id="g12" /><g
     transform="translate(-5e-4,-59.831)"
     id="g14" /><g
     transform="translate(-5e-4,-59.831)"
     id="g16" /><g
     transform="translate(-5e-4,-59.831)"
     id="g18" /><g
     transform="translate(-5e-4,-59.831)"
     id="g20" /><g
     transform="translate(-5e-4,-59.831)"
     id="g22" /><g
     transform="translate(-5e-4,-59.831)"
     id="g24" /><g
     transform="translate(-5e-4,-59.831)"
     id="g26" /><g
     transform="translate(-5e-4,-59.831)"
     id="g28" /><g
     transform="translate(-5e-4,-59.831)"
     id="g30" /><g
     transform="translate(-5e-4,-59.831)"
     id="g32" /></svg>