<?xml version="1.0" encoding="UTF-8" standalone="no"?>
<svg
   xmlns:dc="http://purl.org/dc/elements/1.1/"
   xmlns:cc="http://creativecommons.org/ns#"
   xmlns:rdf="http://www.w3.org/1999/02/22-rdf-syntax-ns#"
   xmlns:svg="http://www.w3.org/2000/svg"
   xmlns="http://www.w3.org/2000/svg"
   height="308.56607"
   width="418.04712"
   xml:space="preserve"
   viewBox="0 0 418.0471 308.56606"
   y="0px"
   x="0px"
   id="Layer_1"
   version="1.1"><metadata
     id="metadata39"><rdf:RDF><cc:Work
         rdf:about=""><dc:format>image/svg+xml</dc:format><dc:type
           rdf:resource="http://purl.org/dc/dcmitype/StillImage" /><dc:title></dc:title></cc:Work></rdf:RDF></metadata><defs
     id="defs37" /><g
     transform="translate(162.01705,36.510441)"
     id="g4" /><g
     transform="translate(162.01705,36.510441)"
     id="g6" /><g
     transform="translate(162.01705,36.510441)"
     id="g8" /><g
     transform="translate(162.01705,36.510441)"
     id="g10" /><g
     transform="translate(162.01705,36.510441)"
     id="g12" /><g
     transform="translate(162.01705,36.510441)"
     id="g14" /><g
     transform="translate(162.01705,36.510441)"
     id="g16" /><g
     transform="translate(162.01705,36.510441)"
     id="g18" /><g
     transform="translate(162.01705,36.510441)"
     id="g20" /><g
     transform="translate(162.01705,36.510441)"
     id="g22" /><g
     transform="translate(162.01705,36.510441)"
     id="g24" /><g
     transform="translate(162.01705,36.510441)"
     id="g26" /><g
     transform="translate(162.01705,36.510441)"
     id="g28" /><g
     transform="translate(162.01705,36.510441)"
     id="g30" /><g
     transform="translate(162.01705,36.510441)"
     id="g32" /><path
     style="stroke-width:9.95374489"
     id="path2"
     d="M 217.22057,304.26606 416.29546,15.607471 c 2.10024,-3.055799 2.31922,-7.01739 0.61713,-10.282218 C 415.1906,2.050471 411.80632,0 408.10353,0 H 9.95375 C 6.25095,0 2.85673,2.050471 1.13473,5.325253 0.37824,6.7785 0,8.371099 0,9.953744 0,11.93454 0.59723,13.905381 1.76182,15.607471 L 200.83671,304.26606 c 1.86135,2.69747 4.91715,4.30002 8.19193,4.30002 3.27478,0 6.33058,-1.61251 8.19193,-4.30002 z" /></svg>