<svg xmlns="http://www.w3.org/2000/svg" width="320" height="159.999" viewBox="0 0 8467 4233" shape-rendering="geometricPrecision" text-rendering="geometricPrecision" image-rendering="optimizeQuality" fill-rule="evenodd" clip-rule="evenodd"><defs><style>.fil0,.fil1{fill:#00013a}.fil1{fill-rule:nonzero}</style></defs><g id="Слой_x0020_1"><path class="fil0" d="M423 3505l459-1129 1740 10-280 698h-366l190 420h-420l-625-420-247 420H424zm793-659l104-257h752c34 0 59 16 71 37 30 62-27 191-71 206-29 13-61 14-92 14h-763z"/><path id="1" class="fil1" d="M902 2385L443 3514l-40-17 459-1129 20-14 20 31zm0 0l-40-17v-1l1-1 1-1 1-1 1-1 1-1 1-1 1-1 1-1 1-1 1-1 1-1 1-1 1-1h19l1 1 1 1 1 1 1 1 1 1 1 1 1 1 1 1 1 1 1 1 1 1 1 1 1 1v18zm1719 24l-1740-10v-44l1740 10 20 31-20 14zm0 0v-44h10l1 1 1 1 1 1 1 1 1 1 1 1 1 1 1 1 1 1 1 1 1 1 1 1v20l-1 1-1 1-1 1-1 1-1 1-1 1-1 1-1 1-1 1-1 1-1 1-1 1h-10zm-300 668l280-698 40 17-280 698-20 14-20-31zm0 0l40 17v1l-1 1-1 1-1 1-1 1-1 1-1 1-1 1-1 1-1 1-1 1-1 1-1 1-1 1h-19l-1-1-1-1-1-1-1-1-1-1-1-1-1-1-1-1-1-1-1-1-1-1-1-1-1-1v-18zm-346-14h366v44h-366l-20-13 20-31zm0 0v44h-10l-1-1-1-1-1-1-1-1-1-1-1-1-1-1-1-1-1-1-1-1-1-1-1-1v-20l1-1 1-1 1-1 1-1 1-1 1-1 1-1 1-1 1-1 1-1 1-1 1-1h10zm170 452l-190-420 39-19 190 420-20 31-20-13zm0 0l39-19v19l-1 1-1 1-1 1-1 1-1 1-1 1-1 1-1 1-1 1-1 1-1 1-1 1-1 1h-19l-1-1-1-1-1-1-1-1-1-1-1-1-1-1-1-1-1-1-1-1-1-1-1-1v-1zm-400-31h420v44h-420l-12-4 12-41zm0 0v44h-10l-1-1-1-1-1-1-1-1-1-1-1-1-1-1-1-1-1-1-1-1-1-1-1-1v-20l1-1 1-1 1-1 1-1 1-1 1-1 1-1 1-1 1-1 1-1 1-1 1-1h10zm-613-417l625 420-24 37-625-420-7-30 31-7zm0 0l-24 37-1-1-1-1-1-1-1-1-1-1-1-1-1-1-1-1-1-1-1-1v-20l1-1 1-1 1-1 1-1 1-1 1-1 1-1 1-1 1-1 1-1 1-1 1-1h19l1 1 1 1 1 1zm-277 427l247-420 37 23-247 420-19 11-19-34zm0 0l37 23-1 1-1 1-1 1-1 1-1 1-1 1-1 1-1 1-1 1-1 1-1 1h-19l-1-1-1-1-1-1-1-1-1-1-1-1-1-1-1-1-1-1-1-1-1-1-1-1-1-1v-20l1-1zm-431-11h450v44H424l-20-31 20-14zm0 0v44h-10l-1-1-1-1-1-1-1-1-1-1-1-1-1-1-1-1-1-1-1-1-1-1-1-1v-20l1-1 1-1 1-1 1-1 1-1 1-1 1-1 1-1 1-1 1-1 1-1 1-1h10zm916-885l-104 257-40-17 104-257 20-14 20 31zm0 0l-40-17v-1l1-1 1-1 1-1 1-1 1-1 1-1 1-1 1-1 1-1 1-1 1-1 1-1 1-1h19l1 1 1 1 1 1 1 1 1 1 1 1 1 1 1 1 1 1 1 1 1 1 1 1 1 1v18zm355 14h-376v-44h376v44zm0 0v-44h10l1 1 1 1 1 1 1 1 1 1 1 1 1 1 1 1 1 1 1 1 1 1 1 1v20l-1 1-1 1-1 1-1 1-1 1-1 1-1 1-1 1-1 1-1 1-1 1-1 1h-10zm376-44v44h-384v-44h384zm0 44v-44h10l1 1 1 1 1 1 1 1 1 1 1 1 1 1 1 1 1 1 1 1 1 1 1 1v20l-1 1-1 1-1 1-1 1-1 1-1 1-1 1-1 1-1 1-1 1-1 1-1 1h-10zm90 5l-39 20 1 1-1-1-1-1-1-1-1-1-1-1-1-1-1-1-1-1-1-1-1-1-1-1-1-1-1-1-1-1-1-1-2-1-2-1-2-1-2-1-2-1-2-1-2-1-2-1-2-1h-18v-44h16l4 1 4 1 4 1 3 1 3 1 3 1 3 1 3 1 3 1 3 1 3 1 3 2 3 2 3 2 3 2 3 2 3 2 2 2 2 2 2 2 2 2 2 2 2 2 2 2 2 2 2 3 2 3 2 3 1 1zm-38 21l38-22 1 1v20l-1 1-1 1-1 1-1 1-1 1-1 1-1 1-1 1-1 1-1 1-1 1-1 1h-19l-1-1-1-1-1-1-1-1-1-1-1-1-1-1-1-1-1-1-1-1-1-1-1-1zm-43 215l-18-40 2-1 2-1 2-1 3-2 3-3 3-3 3-4 4-4 4-5 4-5 4-6 4-6 3-6 3-7 3-7 3-7 3-7 3-7 2-7 2-7 2-7 2-7 1-7 1-7 1-7v-20l-1-6-1-5-1-5-1-5-2-4 39-20 3 8 3 8 2 8 1 9 1 9v18l-1 9-1 9-1 9-2 9-2 9-2 9-3 9-3 9-3 9-3 8-4 8-4 8-4 8-4 8-4 7-4 7-5 7-5 6-5 6-5 5-5 5-6 5-6 4-6 4-7 3 2-1zm-16-41l14 42h-16l-1-1-1-1-1-1-1-1-1-1-1-1-1-1-1-1-1-1-1-1-1-1-1-1-1-1v-20l1-1 1-1 1-1 1-1 1-1 1-1 1-1 1-1 1-1 1-1 1-1 1-1h3zm-85 57v-44h63l2-1 2-1 2-1 2-1 2-1 2-1 2-1 2-1 2-1 2-1 2-1 18 40-3 1-3 1-3 1-3 1-3 1-3 1-3 1-3 1-3 1-3 1-3 1-3 1-3 1-3 1h-54zm0-44v44h-10l-1-1-1-1-1-1-1-1-1-1-1-1-1-1-1-1-1-1-1-1-1-1-1-1v-20l1-1 1-1 1-1 1-1 1-1 1-1 1-1 1-1 1-1 1-1 1-1 1-1h10zm-763 0h763v44h-763l-20-31 20-14zm0 0v44h-10l-1-1-1-1-1-1-1-1-1-1-1-1-1-1-1-1-1-1-1-1-1-1-1-1v-20l1-1 1-1 1-1 1-1 1-1 1-1 1-1 1-1 1-1 1-1 1-1 1-1h10z"/><path class="fil0" d="M3516 3505l448-1116H2778l-450 1116h1188zm-665-190c-49 0-56-40-48-60 83-199 167-398 250-597 10-23 39-69 95-69 145 1 142-1 287 0 60 0 64 47 54 70-80 198-160 398-240 597-8 20-43 59-83 59h-315z"/><path id="1" class="fil1" d="M3984 2397l-448 1116-40-17 448-1116 20-14 20 31zm0 0l-40-17v-1l1-1 1-1 1-1 1-1 1-1 1-1 1-1 1-1 1-1 1-1 1-1 1-1 1-1h19l1 1 1 1 1 1 1 1 1 1 1 1 1 1 1 1 1 1 1 1 1 1 1 1 1 1v18zm-1206-31h1186v44H2778l-20-31 20-14zm0 0v44h-10l-1-1-1-1-1-1-1-1-1-1-1-1-1-1-1-1-1-1-1-1-1-1-1-1v-20l1-1 1-1 1-1 1-1 1-1 1-1 1-1 1-1 1-1 1-1 1-1 1-1h10zm-470 1130l450-1116 40 17-450 1116-20 14-20-31zm0 0l40 17v1l-1 1-1 1-1 1-1 1-1 1-1 1-1 1-1 1-1 1-1 1-1 1-1 1-1 1h-19l-1-1-1-1-1-1-1-1-1-1-1-1-1-1-1-1-1-1-1-1-1-1-1-1-1-1v-18zm1208 31H2328v-44h1188l20 31-20 14zm0 0v-44h10l1 1 1 1 1 1 1 1 1 1 1 1 1 1 1 1 1 1 1 1 1 1 1 1v20l-1 1-1 1-1 1-1 1-1 1-1 1-1 1-1 1-1 1-1 1-1 1-1 1h-10zm-734-281l40 17v14l1 1 1 1 1 1 1 1 1 1 1 1 1 1 1 1 1 1 1 1 2 1 2 1 2 1 2 1h11v44h-11l-5-1-5-1-5-1-5-2-4-2-4-2-4-2-4-3-4-3-3-3-3-3-3-3-2-3-2-4-2-4-2-4-1-4-1-4-1-4-1-4v-23l1-3 1-3 1-3 1-3zm250-597l40 18-8 19-8 19-8 19-8 19-8 19-8 19-8 19-8 19-8 19-8 19-8 19-8 19-8 19-8 19-8 19-8 19-8 19-8 19-8 19-8 19-8 19-8 19-8 19-8 19-8 19-8 19-8 19-8 19-8 19-8 19-8 19-8 19-40-17 8-19 8-19 8-19 8-19 8-19 8-19 8-19 8-19 8-19 8-19 8-19 8-19 8-19 8-19 8-19 8-19 8-19 8-19 8-19 8-19 8-19 8-19 8-19 8-19 8-19 8-19 8-19 8-19 8-19 8-19 8-19 8-19zm40 17l-40-17v-1l1-1 1-1 1-1 1-1 1-1 1-1 1-1 1-1 1-1 1-1 1-1 1-1 1-1h19l1 1 1 1 1 1 1 1 1 1 1 1 1 1 1 1 1 1 1 1 1 1 1 1 1 1v18zm75-100v44h-12l-4 1-3 1-3 1-3 1-3 1-3 1-3 2-3 2-3 2-3 2-3 2-2 2-2 2-2 2-2 2-2 2-2 2-2 2-2 2-2 2-2 2-1 2-1 2-1 2-1 2-1 2-1 2-1 2-1 2-40-18 1-3 1-3 1-3 2-3 2-3 2-3 2-3 2-3 2-3 2-3 3-3 3-3 3-3 3-3 3-3 3-3 4-3 4-3 4-3 4-3 4-3 5-3 5-2 5-2 5-2 5-2 5-2 6-1 6-1 6-1h12zm0 44v-44h10l1 1 1 1 1 1 1 1 1 1 1 1 1 1 1 1 1 1 1 1 1 1 1 1v20l-1 1-1 1-1 1-1 1-1 1-1 1-1 1-1 1-1 1-1 1-1 1-1 1h-10zm287-44v44h-289v-44h289zm0 44v-44h9l1 1 1 1 1 1 1 1 1 1 1 1 1 1 1 1 1 1 1 1 1 1 1 1 1 1v20l-1 1-1 1-1 1-1 1-1 1-1 1-1 1-1 1-1 1-1 1-1 1-1 1h-10zm75 56l-40-17v-25l-1-1-1-1-1-1-1-1-1-1-1-1-1-1-1-1-1-1-2-1-2-1-2-1-3-1-3-1-3-1h-12v-44h13l6 1 6 1 6 1 5 2 5 2 5 2 5 3 4 3 4 3 4 4 3 4 3 4 3 4 2 4 2 4 2 4 1 4 1 4 1 4 1 4v20l-1 4-1 4-1 4-1 3-1 3zm-240 597l-40-17 7-19 7-19 7-19 7-19 7-19 7-19 8-19 7-19 8-19 8-19 8-19 8-19 8-19 8-19 8-19 8-19 8-19 8-19 8-19 8-19 8-19 8-19 8-19 8-19 7-19 8-19 7-19 7-19 7-19 7-19 7-19 7-19 40 17-7 19-7 19-7 19-7 19-7 19-7 19-8 19-7 19-8 19-8 19-8 19-8 19-8 19-8 19-8 19-8 19-8 19-8 19-8 19-8 19-8 19-8 19-8 19-8 19-7 19-8 19-7 19-7 19-7 19-7 19-7 19-7 19zm-104 73v-44h9l3-1 3-1 3-1 3-1 3-1 3-1 3-1 3-1 3-2 2-2 2-2 2-2 2-2 2-2 2-2 2-2 2-2 2-2 2-2 2-2 2-2 1-2 1-2 1-2 1-2 1-2 1-1 1-1v-1l40 17-1 3-1 3-2 3-2 3-2 3-2 3-2 3-2 3-2 3-2 3-3 3-3 3-3 3-3 3-3 3-3 3-3 3-3 3-4 3-4 2-4 2-4 2-4 2-4 2-4 2-4 2-4 1-5 1-5 1-5 1h-10zm0-44v44h-10l-1-1-1-1-1-1-1-1-1-1-1-1-1-1-1-1-1-1-1-1-1-1-1-1v-20l1-1 1-1 1-1 1-1 1-1 1-1 1-1 1-1 1-1 1-1 1-1 1-1 1-1h9zm-315 44v-44h317v44h-317zm0-44v44h-10l-1-1-1-1-1-1-1-1-1-1-1-1-1-1-1-1-1-1-1-1-1-1-1-1v-20l1-1 1-1 1-1 1-1 1-1 1-1 1-1 1-1 1-1 1-1 1-1 1-1h10z"/><path class="fil0" d="M4113 3505l166-420h1204l289-696H4124l-450 1116h439zm265-657l104-257h752c34 0 59 16 71 37 30 62-27 191-71 206-29 13-61 14-92 14h-763z"/><path id="1" class="fil1" d="M4300 3093l-166 420-40-17 166-420 20-14 20 30zm0 0l-40-17v-1l1-1 1-1 1-1 1-1 1-1 1-1 1-1 1-1 1-1 1-1 1-1 1-1 1-1h19l1 1 1 1 1 1 1 1 1 1 1 1 1 1 1 1 1 1 1 1 1 1 1 1 1 1v18zm1183 14H4279v-44h1204l20 31-20 14zm0 0v-44h10l1 1 1 1 1 1 1 1 1 1 1 1 1 1 1 1 1 1 1 1 1 1 1 1v20l-1 1-1 1-1 1-1 1-1 1-1 1-1 1-1 1-1 1-1 1-1 1-1 1h-10zm309-709l-289 696-40-17 289-696 20-14 20 31zm0 0l-40-17v-1l1-1 1-1 1-1 1-1 1-1 1-1 1-1 1-1 1-1 1-1 1-1 1-1 1-1h19l1 1 1 1 1 1 1 1 1 1 1 1 1 1 1 1 1 1 1 1 1 1 1 1 1 1v18zm-1668-31h1648v44H4124l-20-31 20-14zm0 0v44h-10l-1-1-1-1-1-1-1-1-1-1-1-1-1-1-1-1-1-1-1-1-1-1-1-1v-20l1-1 1-1 1-1 1-1 1-1 1-1 1-1 1-1 1-1 1-1 1-1 1-1h10zm-470 1130l450-1116 40 17-450 1116-20 14-20-31zm0 0l40 17v1l-1 1-1 1-1 1-1 1-1 1-1 1-1 1-1 1-1 1-1 1-1 1-1 1-1 1h-19l-1-1-1-1-1-1-1-1-1-1-1-1-1-1-1-1-1-1-1-1-1-1-1-1-1-1v-18zm459 31h-439v-44h439l20 30-20 14zm0 0v-44h10l1 1 1 1 1 1 1 1 1 1 1 1 1 1 1 1 1 1 1 1 1 1 1 1v20l-1 1-1 1-1 1-1 1-1 1-1 1-1 1-1 1-1 1-1 1-1 1-1 1h-10zm388-928l-104 257-40-17 104-257 20-14 20 31zm0 0l-40-17v-1l1-1 1-1 1-1 1-1 1-1 1-1 1-1 1-1 1-1 1-1 1-1 1-1 1-1h19l1 1 1 1 1 1 1 1 1 1 1 1 1 1 1 1 1 1 1 1 1 1 1 1 1 1v18zm355 14h-376v-44h376v44zm0 0v-44h10l1 1 1 1 1 1 1 1 1 1 1 1 1 1 1 1 1 1 1 1 1 1 1 1v20l-1 1-1 1-1 1-1 1-1 1-1 1-1 1-1 1-1 1-1 1-1 1-1 1h-10zm376-44v44h-384v-44h384zm0 44v-44h10l1 1 1 1 1 1 1 1 1 1 1 1 1 1 1 1 1 1 1 1 1 1 1 1v20l-1 1-1 1-1 1-1 1-1 1-1 1-1 1-1 1-1 1-1 1-1 1-1 1h-10zm90 5l-39 20 1 1-1-1-1-1-1-1-1-1-1-1-1-1-1-1-1-1-1-1-1-1-1-1-1-1-1-1-1-1-2-1-2-1-2-1-2-1-2-1-2-1-2-1-2-1-2-1-2-1h-18v-44h20l4 1 3 1 3 1 3 1 3 1 3 1 3 1 3 1 3 1 3 1 3 2 3 2 3 2 3 2 3 2 3 2 2 2 2 2 2 2 2 2 2 2 2 2 2 2 2 3 2 3 2 3 2 3 1 1zm-38 21l38-22 1 1v20l-1 1-1 1-1 1-1 1-1 1-1 1-1 1-1 1-1 1-1 1-1 1-1 1h-19l-1-1-1-1-1-1-1-1-1-1-1-1-1-1-1-1-1-1-1-1-1-1-1-1zm-43 215l-18-40 2-1 2-1 2-1 3-2 3-3 3-3 3-4 4-4 4-5 4-5 4-6 4-6 3-6 3-7 3-7 3-7 3-7 3-7 2-7 2-7 2-7 2-7 1-7 1-7 1-7v-19l-1-6-1-5-1-5-1-5-2-4 39-20 3 8 3 8 2 8 1 9 1 9v18l-1 9-1 9-1 9-2 9-2 9-2 9-3 9-3 9-3 9-3 8-4 8-4 8-4 8-4 8-4 7-4 7-5 7-5 6-5 6-5 5-5 5-6 5-6 4-6 4-7 3 2-1zm-16-41l14 42h-16l-1-1-1-1-1-1-1-1-1-1-1-1-1-1-1-1-1-1-1-1-1-1-1-1-1-1v-20l1-1 1-1 1-1 1-1 1-1 1-1 1-1 1-1 1-1 1-1 1-1 1-1h3zm-85 57v-44h63l3-1 2-1 2-1 2-1 2-1 2-1 2-1 2-1 2-1 2-1 2-1 18 40-3 1-3 1-3 1-3 1-3 1-3 1-3 1-3 1-3 1-3 1-3 1-3 1-3 1h-57zm0-44v44h-10l-1-1-1-1-1-1-1-1-1-1-1-1-1-1-1-1-1-1-1-1-1-1-1-1v-20l1-1 1-1 1-1 1-1 1-1 1-1 1-1 1-1 1-1 1-1 1-1 1-1h10zm-763 0h763v44h-763l-20-31 20-14zm0 0v44h-10l-1-1-1-1-1-1-1-1-1-1-1-1-1-1-1-1-1-1-1-1-1-1-1-1v-20l1-1 1-1 1-1 1-1 1-1 1-1 1-1 1-1 1-1 1-1 1-1 1-1h10z"/><path class="fil0" d="M5470 3505h457l446-1116h-453z"/><path id="1" class="fil1" d="M5927 3527h-457v-44h457l20 31-20 14zm0 0v-44h10l1 1 1 1 1 1 1 1 1 1 1 1 1 1 1 1 1 1 1 1 1 1 1 1v20l-1 1-1 1-1 1-1 1-1 1-1 1-1 1-1 1-1 1-1 1-1 1-1 1h-10zm466-1130l-446 1116-40-17 446-1116 20-14 20 31zm0 0l-40-17v-2l1-1 1-1 1-1 1-1 1-1 1-1 1-1 1-1 1-1 1-1 1-1 1-1h19l1 1 1 1 1 1 1 1 1 1 1 1 1 1 1 1 1 1 1 1 1 1 1 1 1 1v18zm-474-31h454v44h-454l-20-31 20-14zm0 0v44h-10l-1-1-1-1-1-1-1-1-1-1-1-1-1-1-1-1-1-1-1-1-1-1-1-1v-20l1-1 1-1 1-1 1-1 1-1 1-1 1-1 1-1 1-1 1-1 1-1 1-1h10zm-470 1130l450-1116 40 17-450 1116-20 14-20-31zm0 0l40 17v1l-1 1-1 1-1 1-1 1-1 1-1 1-1 1-1 1-1 1-1 1-1 1-1 1-1 1h-19l-1-1-1-1-1-1-1-1-1-1-1-1-1-1-1-1-1-1-1-1-1-1-1-1-1-1v-18z"/><path fill="#fefefe" stroke="#00013a" stroke-width="84.67" stroke-linejoin="round" d="M7462 2221l234-580H3384l348-892H2729V220h-654v529l-375 892h-523l-232 576z"/><path class="fil0" stroke="#00013a" stroke-width="50.8" stroke-linejoin="round" d="M6084 3505h441l474-1172h418l279-692-6724 509-46 113 5656 2z"/></g></svg>